<svg xmlns="http://www.w3.org/2000/svg" width="83" height="31" fill="none"><g clip-path="url(#a)"><g clip-path="url(#b)"><path stroke="#2F3715" stroke-linecap="round" stroke-linejoin="round" stroke-width="1.946" d="M27.946 15.162a13.458 13.458 0 0 0-26.303-4.02c-.11.35-.165.525-.16.745.004.177.059.398.138.558.096.196.246.346.546.645l14.394 14.393c.299.301.449.45.646.549.175.08.364.127.557.136.22.004.394-.05.745-.16a13.46 13.46 0 0 0 9.437-12.846"/><path stroke="#2F3715" stroke-linecap="round" stroke-linejoin="round" stroke-width="1.946" d="M3.268 11.992A13.46 13.46 0 0 1 17.66 26.384c-.04.558-.06.838-.223 1.01a.7.7 0 0 1-.55.206c-.237-.023-.452-.238-.88-.667L2.719 13.643c-.43-.43-.644-.643-.666-.88a.7.7 0 0 1 .204-.549c.172-.163.452-.184 1.01-.222"/><path fill="#2F3715" d="M37.09 9.218q2.074 0 3.624.804a5.54 5.54 0 0 1 2.41 2.278q.86 1.475.86 3.456t-.86 3.437a5.6 5.6 0 0 1-2.41 2.241q-1.55.766-3.624.766h-4.24V9.217zm0 11.245q2.279 0 3.493-1.233 1.216-1.232 1.216-3.474 0-2.26-1.216-3.53-1.214-1.271-3.493-1.27h-2.11v9.507zm18.325-8.555V22.2h-2.13v-1.215a3.5 3.5 0 0 1-1.326 1.01 4.2 4.2 0 0 1-1.72.355 4.7 4.7 0 0 1-2.184-.504 3.7 3.7 0 0 1-1.512-1.495q-.542-.99-.542-2.391v-6.052h2.11v5.735q0 1.381.69 2.13.694.726 1.888.727 1.195 0 1.886-.727.712-.747.712-2.13v-5.736zm8.004-.169q1.213.002 2.167.504a3.57 3.57 0 0 1 1.511 1.496q.543.99.543 2.39V22.2h-2.11v-5.753q0-1.381-.693-2.11-.69-.748-1.887-.748-1.194 0-1.904.747-.692.73-.692 2.11V22.2h-2.129V11.908h2.13v1.177q.523-.636 1.325-.99a4.3 4.3 0 0 1 1.737-.356zm16.37 5.063q0 .578-.074 1.047h-7.864q.093 1.232.914 1.979.823.748 2.019.748 1.719 0 2.428-1.438h2.297a4.67 4.67 0 0 1-1.7 2.335q-1.214.896-3.025.896-1.476 0-2.653-.655a4.9 4.9 0 0 1-1.83-1.867q-.654-1.214-.654-2.802-.001-1.589.634-2.783a4.6 4.6 0 0 1 1.813-1.867q1.176-.657 2.69-.656 1.455 0 2.597.636a4.47 4.47 0 0 1 1.774 1.794q.635 1.137.634 2.633m-2.223-.672q-.018-1.178-.84-1.887-.823-.711-2.035-.71-1.103 0-1.887.71-.785.691-.934 1.886z"/><mask id="c" width="50" height="17" x="31" y="7" maskUnits="userSpaceOnUse" style="mask-type:luminance"><path fill="#fff" d="M31.45 7.379h48.91v16.304H31.45z"/><path fill="#000" d="M37.09 9.218q2.074 0 3.624.804a5.54 5.54 0 0 1 2.41 2.278q.86 1.475.86 3.456t-.86 3.437a5.6 5.6 0 0 1-2.41 2.241q-1.55.766-3.624.766h-4.24V9.217zm0 11.245q2.279 0 3.493-1.233 1.216-1.232 1.216-3.474 0-2.26-1.216-3.53-1.214-1.271-3.493-1.27h-2.11v9.507zm18.325-8.555V22.2h-2.13v-1.215a3.5 3.5 0 0 1-1.326 1.01 4.2 4.2 0 0 1-1.72.355 4.7 4.7 0 0 1-2.184-.504 3.7 3.7 0 0 1-1.512-1.495q-.542-.99-.542-2.391v-6.052h2.11v5.735q0 1.381.69 2.13.694.726 1.888.727 1.195 0 1.886-.727.712-.747.712-2.13v-5.736zm8.004-.169q1.213.002 2.167.504a3.57 3.57 0 0 1 1.511 1.496q.543.99.543 2.39V22.2h-2.11v-5.753q0-1.381-.693-2.11-.69-.748-1.887-.748-1.194 0-1.904.747-.692.73-.692 2.11V22.2h-2.129V11.908h2.13v1.177q.523-.636 1.325-.99a4.3 4.3 0 0 1 1.737-.356zm16.37 5.063q0 .578-.074 1.047h-7.864q.093 1.232.914 1.979.823.748 2.019.748 1.719 0 2.428-1.438h2.297a4.67 4.67 0 0 1-1.7 2.335q-1.214.896-3.025.896-1.476 0-2.653-.655a4.9 4.9 0 0 1-1.83-1.867q-.654-1.214-.654-2.802-.001-1.589.634-2.783a4.6 4.6 0 0 1 1.813-1.867q1.176-.657 2.69-.656 1.455 0 2.597.636a4.47 4.47 0 0 1 1.774 1.794q.635 1.137.634 2.633m-2.223-.672q-.018-1.178-.84-1.887-.823-.711-2.035-.71-1.103 0-1.887.71-.785.691-.934 1.886z"/></mask><g mask="url(#c)"><path fill="#2F3715" d="m40.715 10.02-.178.347.004.001zm2.41 2.28-.34.19.003.005zm0 6.893-.336-.197-.002.003zm-2.41 2.24.171.35h.003zm-7.865.767h-.39v.39h.39zm0-12.984v-.388h-.39v.39zm2.129 1.739v-.39h-.39v.39zm0 9.508h-.39v.39h.39zm2.11-10.857c1.333 0 2.475.258 3.445.76l.358-.692c-1.098-.567-2.371-.844-3.803-.844zm3.45.762a5.16 5.16 0 0 1 2.245 2.123l.678-.381a5.93 5.93 0 0 0-2.576-2.437l-.346.697zm2.249 2.127c.534.916.805 1.998.805 3.26h.778c0-1.378-.3-2.599-.912-3.651zm.805 3.26c0 1.263-.273 2.338-.805 3.24l.67.395c.614-1.04.913-2.257.913-3.634zM42.787 19a5.2 5.2 0 0 1-2.247 2.088l.346.697a6 6 0 0 0 2.573-2.397zm-2.246 2.086c-.97.48-2.118.727-3.452.727v.778c1.43 0 2.7-.265 3.796-.806zm-3.452.727h-4.24l.001.778h4.24zm-3.85.388V9.216h-.78l.002 12.984zm-.39-12.594h4.24V8.83l-4.239-.002zm4.24 11.247c1.59 0 2.867-.433 3.77-1.349l-.554-.548c-.715.726-1.766 1.117-3.216 1.117zm3.77-1.349c.902-.916 1.327-2.183 1.327-3.75h-.778c0 1.425-.385 2.474-1.103 3.202zm1.327-3.75c0-1.575-.425-2.86-1.322-3.799l-.563.538c.722.756 1.107 1.826 1.107 3.261zm-1.322-3.799c-.904-.944-2.183-1.39-3.775-1.39v.778c1.447 0 2.496.4 3.212 1.15zm-3.775-1.39h-2.11v.778h2.11zm-2.5.39v9.508h.778v-9.508zm.39 9.898h2.11v-.78h-2.11zm20.435-8.945h.389v-.391h-.389zm0 10.292v.39h.389v-.39zm-2.13 0h-.388v.39h.389zm0-1.215h.39V19.87l-.695.875zm-1.326 1.01.157.356.005-.003zm-3.904-.15-.182.345h.003zm-1.512-1.495-.342.187.003.006zM46 11.908v-.391h-.39v.39zm2.11 0h.39v-.391h-.39zm.691 7.864-.286.264.005.003zm4.485-7.864v-.391h-.391v.39h.39zm1.739 0V22.2h.778V11.908zm.39 9.904h-2.13v.778h2.13zm-1.74.388v-1.215h-.78l.001 1.215zm-.696-1.455a3.1 3.1 0 0 1-1.181.895l.322.708a3.9 3.9 0 0 0 1.47-1.12zm-1.178.893a3.8 3.8 0 0 1-1.56.322v.778a4.6 4.6 0 0 0 1.874-.387zm-1.56.322a4.3 4.3 0 0 1-2.008-.46l-.358.69c.708.367 1.5.548 2.365.548zm-2.005-.46a3.33 3.33 0 0 1-1.356-1.34l-.677.383c.407.72.963 1.276 1.669 1.647l.364-.688zm-1.353-1.336c-.323-.59-.495-1.32-.495-2.204h-.778c0 .984.191 1.846.59 2.577zm-.495-2.204v-6.052l-.778-.002v6.054zM46 12.298h2.11v-.781H46zm1.72-.39v5.734h.78v-5.734zm0 5.734c0 .985.248 1.801.795 2.394l.572-.529c-.373-.403-.587-1.005-.587-1.865zm.8 2.397c.548.578 1.286.85 2.168.85v-.777c-.712 0-1.23-.215-1.604-.608zm2.168.85c.882 0 1.621-.272 2.17-.85l-.565-.535c-.373.393-.892.608-1.605.608zm2.17-.85c.563-.593.816-1.41.816-2.397h-.78c0 .857-.217 1.457-.601 1.862zm.816-2.397v-5.735h-.78v5.735zm-.39-5.346h2.13v-.78l-2.13.002zm12.3-.053-.181.344.002.001zm2.055 9.958v.389h.388v-.39h-.388zm-2.11 0h-.39v.389h.39v-.39zm-.693-7.865-.284.264.003.004zM60.353 22.2v.39h.39v-.39zm-2.128 0h-.39v.39h.39zm0-10.292v-.391h-.39v.39zm2.13 0h.388v-.391h-.39v.39zm0 1.177h-.39v1.083l.689-.836zm1.324-.99-.154-.357h-.003l.157.355zm1.737.034c.756 0 1.415.155 1.987.46l.363-.69a4.95 4.95 0 0 0-2.348-.548zm1.99.46c.576.3 1.024.74 1.35 1.336l.682-.373a3.96 3.96 0 0 0-1.675-1.654l-.36.69zm1.35 1.336c.323.59.493 1.32.493 2.204h.778c0-.984-.19-1.848-.588-2.579zm.493 2.204V22.2h.778v-6.07zm.39 5.683h-2.11v.778h2.11zm-1.722.388v-5.754h-.778V22.2zm0-5.754c0-.982-.246-1.796-.797-2.379l-.565.537c.37.39.584.983.584 1.842zm-.795-2.374c-.548-.593-1.288-.873-2.172-.873v.778c.71 0 1.227.218 1.6.623zm-2.172-.873c-.885 0-1.63.282-2.188.869l.565.536c.388-.409.914-.627 1.623-.627zm-2.188.869c-.551.582-.797 1.396-.797 2.378h.778c0-.86.215-1.452.584-1.842l-.563-.536zm-.797 2.378V22.2h.778v-5.754zm.388 5.366h-2.128v.778h2.128zm-1.74.388V11.908l-.778-.002V22.2zm-.388-9.904h2.13v-.778l-2.13-.001zm1.74-.388v1.177h.778v-1.177zm.689 1.423a3.2 3.2 0 0 1 1.182-.88l-.314-.713a3.9 3.9 0 0 0-1.468 1.098l.6.496zm1.18-.879a3.9 3.9 0 0 1 1.582-.323l.002-.778q-.994 0-1.893.387zm17.88 5.395v.39h.332l.052-.328-.384-.06zm-7.864 0v-.388h-.42l.032.418zm5.36 1.29v-.387h-.24l-.108.216zm2.298 0 .37.121.168-.51h-.538zm-7.378 2.577-.196.336.006.005zm-1.83-1.868-.343.186.003.006zm8.854-5.678-.341.187v.002zm-1.587 1.961v.39h.394l-.006-.396zm-4.764-1.887.256.292.005-.003zm-.934 1.887-.387-.049-.055.439h.44v-.39zm7.53.673q0 .554-.069.984l.768.123q.081-.503.08-1.107zm.315.657H71.85v.778h7.864zm-8.252.418c.07.91.412 1.666 1.041 2.238l.524-.575c-.466-.423-.734-.986-.789-1.721zm1.041 2.238c.626.569 1.394.849 2.28.849v-.778c-.708 0-1.285-.218-1.756-.646l-.523.576zm2.28.849c.627 0 1.187-.132 1.665-.415.478-.282.847-.703 1.111-1.24l-.697-.343a2.1 2.1 0 0 1-.812.915c-.332.197-.75.305-1.267.305zm2.428-1.438h2.297v-.778h-2.297zm1.927-.511a4.28 4.28 0 0 1-1.561 2.145l.462.624a5.06 5.06 0 0 0 1.84-2.526zm-1.561 2.145c-.73.54-1.653.82-2.794.82v.777c1.275 0 2.368-.315 3.256-.972zm-2.794.82a5 5 0 0 1-2.465-.605l-.378.68c.848.471 1.8.702 2.843.702zm-2.457-.603a4.5 4.5 0 0 1-1.687-1.722l-.679.383a5.3 5.3 0 0 0 1.974 2.012zm-1.684-1.714c-.4-.746-.608-1.616-.608-2.618h-.778c0 1.112.23 2.112.701 2.987zm-.608-2.618c0-1.008.202-1.869.59-2.601l-.687-.366c-.459.863-.68 1.856-.68 2.967zm.589-2.6a4.2 4.2 0 0 1 1.66-1.713l-.381-.677a5 5 0 0 0-1.964 2.021l.685.37m1.66-1.711c.718-.4 1.549-.605 2.5-.605v-.778c-1.067 0-2.03.23-2.88.702zm2.5-.605c.913 0 1.712.199 2.407.585l.378-.68c-.824-.46-1.755-.683-2.785-.683zm2.407.585a4.1 4.1 0 0 1 1.623 1.641l.682-.375a4.86 4.86 0 0 0-1.927-1.946zm1.623 1.643c.387.695.585 1.505.585 2.445h.78c0-1.052-.224-1.998-.685-2.823zm-.858 1.766c-.015-.885-.337-1.623-.975-2.176l-.509.59c.457.395.695.915.706 1.598zm-.972-2.176c-.627-.54-1.4-.804-2.29-.804v.78c.726 0 1.313.21 1.781.614zm-2.29-.804c-.827 0-1.55.27-2.15.81l.524.578a2.33 2.33 0 0 1 1.626-.609zm-2.145.807c-.605.534-.953 1.254-1.063 2.13l.772.098c.09-.719.365-1.255.805-1.644zm-.677 2.567h5.699v-.778h-5.7v.78z"/></g></g></g><defs><clipPath id="a"><path fill="#fff" d="M0 0h83v30.09H0z"/></clipPath><clipPath id="b"><path fill="#fff" d="M0 .223h83v29.643H0z"/></clipPath></defs></svg>