<svg xmlns="http://www.w3.org/2000/svg" width="111" height="20" fill="none"><path fill="#2F3715" d="M13.04 16.123H4.79l-1.417 3.644H0L7.06 1.901h3.74l7.06 17.866h-3.404zm-.906-2.388L8.93 5.442l-3.231 8.293zM26.6 20q-1.845 0-3.318-.592a5.94 5.94 0 0 1-2.297-1.643 3.9 3.9 0 0 1-.907-2.335h3.345q.088.897.937 1.514.878.59 2.183.59 1.36 0 2.098-.462.766-.488.766-1.232 0-.795-.852-1.18-.822-.386-2.636-.848a28 28 0 0 1-2.863-.846 5.16 5.16 0 0 1-1.93-1.26q-.794-.847-.793-2.234 0-1.128.739-2.053.736-.95 2.096-1.488 1.39-.54 3.176-.54 2.666 0 4.28 1.232 1.645 1.208 1.759 3.311H29.15a1.9 1.9 0 0 0-.247-.839 2.1 2.1 0 0 0-.603-.675q-.765-.563-2.07-.564-1.274 0-1.957.436a1.4 1.4 0 0 0-.504.498 1.25 1.25 0 0 0-.175.657q0 .566.454.95a3.5 3.5 0 0 0 1.105.617q.654.204 1.928.538 1.7.411 2.78.848 1.104.411 1.898 1.232.795.822.822 2.183 0 1.205-.738 2.157-.736.949-2.097 1.488-1.333.538-3.146.538zM39.844 8.01v7.83q0 .797.397 1.156.425.334 1.417.334h1.983v2.439h-2.55q-2.184-.002-3.345-.924-1.162-.925-1.162-3.005V8.01H34.74V5.623h1.844V2.105h3.258v3.517h3.801v2.387zm21.094 4.337a8.4 8.4 0 0 1-.114 1.44H48.888q.144 1.693 1.39 2.72 1.249 1.028 3.063 1.027 2.606.001 3.684-1.976h3.487c-.464 1.29-1.367 2.413-2.58 3.208Q56.09 20 53.34 20q-2.237 0-4.025-.9a7.07 7.07 0 0 1-2.777-2.567q-.993-1.668-.994-3.85 0-2.183.964-3.826c.625-1.078 1.58-1.969 2.75-2.567q1.787-.9 4.084-.9 2.21 0 3.94.873 1.728.875 2.693 2.466.964 1.566.964 3.62zm-3.373-.923q-.03-1.617-1.276-2.593-1.248-.975-3.092-.975a4.38 4.38 0 0 0-2.862.975q-1.19.95-1.417 2.593zm9.786-3.747a4.8 4.8 0 0 1 1.87-1.671q1.19-.615 2.808-.615V8.42h-.824q-1.897 0-2.89.873-.965.874-.964 3.03v7.446h-3.233V5.622h3.233zm9.291-3.929a2.2 2.2 0 0 1-.797-.132 2 2 0 0 1-.675-.407 1.8 1.8 0 0 1-.451-.611 1.7 1.7 0 0 1-.146-.724q0-.796.595-1.335c.192-.176.422-.315.676-.407.253-.093.525-.138.798-.131q.853-.002 1.447.538t.595 1.334q.002.799-.595 1.336a2 2 0 0 1-.662.405 2.2 2.2 0 0 1-.785.134m1.59 1.874v14.147h-3.235V5.622zM88.144 20q-1.844 0-3.318-.592a5.94 5.94 0 0 1-2.296-1.643 3.9 3.9 0 0 1-.907-2.335h3.347q.083.897.934 1.514.88.59 2.183.59 1.36 0 2.099-.462.765-.488.765-1.232 0-.795-.852-1.18-.82-.386-2.636-.848a28 28 0 0 1-2.862-.846 5.16 5.16 0 0 1-1.928-1.26q-.795-.847-.795-2.234 0-1.128.738-2.053.735-.95 2.099-1.488 1.386-.54 3.174-.54 2.665 0 4.28 1.232 1.646 1.208 1.758 3.311h-3.231a1.9 1.9 0 0 0-.248-.839 2.1 2.1 0 0 0-.604-.675c-.51-.375-1.197-.564-2.07-.564q-1.274 0-1.954.436a1.4 1.4 0 0 0-.506.498 1.23 1.23 0 0 0-.175.657q0 .566.453.95a3.5 3.5 0 0 0 1.105.617q.655.204 1.928.538 1.702.411 2.78.848 1.105.411 1.898 1.232.795.822.824 2.183 0 1.205-.738 2.157-.736.949-2.098 1.488-1.334.538-3.147.538zm15.653-7.292 7.201 7.06h-4.366l-5.781-6.084v6.085H97.62V.77h3.231v11.04l5.671-6.186H111z"/></svg>