<svg xmlns="http://www.w3.org/2000/svg" width="86" height="27" fill="none"><g clip-path="url(#a)"><g clip-path="url(#b)"><g clip-path="url(#c)"><path stroke="#2F3715" stroke-linecap="round" stroke-linejoin="round" stroke-width="1.568" d="M23.264 12.082c0 4.384-3.58 7.94-7.998 7.94s-8-3.554-8-7.942m0 0c0-4.386 3.581-7.94 8-7.94 4.417 0 7.998 3.556 7.998 7.94 0 5.848-4.775 10.588-10.665 10.588S1.934 17.928 1.934 12.08m5.332 0c0-5.846 4.776-10.586 10.666-10.586s10.665 4.74 10.665 10.588"/><path fill="#2F3715" d="M41.362 20.253a7.9 7.9 0 0 1-3.86-.971 7.5 7.5 0 0 1-2.783-2.739q-1.012-1.769-1.012-3.968 0-2.2 1.012-3.946a7.3 7.3 0 0 1 2.783-2.718 7.76 7.76 0 0 1 3.86-.992q2.115 0 3.86.992a7.13 7.13 0 0 1 2.782 2.718q1.015 1.746 1.014 3.946t-1.014 3.968a7.27 7.27 0 0 1-2.782 2.739q-1.746.97-3.86.97m0-2.136q1.489 0 2.654-.667a4.74 4.74 0 0 0 1.81-1.942q.669-1.272.668-2.933 0-1.66-.667-2.912a4.6 4.6 0 0 0-1.811-1.918q-1.165-.67-2.654-.67t-2.652.67a4.7 4.7 0 0 0-1.834 1.918q-.646 1.251-.647 2.912.001 1.66.647 2.933a4.9 4.9 0 0 0 1.834 1.942q1.164.667 2.652.667m12.533-8.152q.627-.818 1.704-1.38a5.2 5.2 0 0 1 2.437-.56q1.553 0 2.826.777 1.294.754 2.028 2.135.731 1.379.731 3.17t-.731 3.213a5.55 5.55 0 0 1-2.028 2.2 5.3 5.3 0 0 1-2.826.776q-1.357 0-2.414-.54a5.5 5.5 0 0 1-1.727-1.379v7.376h-2.458V8.219h2.458zm7.225 4.141q0-1.229-.517-2.113a3.3 3.3 0 0 0-1.338-1.359 3.47 3.47 0 0 0-1.768-.475q-.926 0-1.768.475-.819.476-1.336 1.38-.498.907-.498 2.135 0 1.23.498 2.157.517.907 1.336 1.381a3.56 3.56 0 0 0 1.768.473q.95 0 1.768-.473.842-.497 1.338-1.425.517-.927.517-2.156m4.114 0q0-1.79.732-3.17a5.48 5.48 0 0 1 4.876-2.912q1.402 0 2.437.561 1.056.539 1.681 1.36V8.218h2.48v11.883h-2.48v-1.768q-.627.84-1.702 1.4-1.08.561-2.46.562a5.3 5.3 0 0 1-2.804-.777 5.76 5.76 0 0 1-2.026-2.2q-.734-1.424-.734-3.213m9.726.045q0-1.23-.518-2.136a3.5 3.5 0 0 0-1.314-1.38 3.47 3.47 0 0 0-1.77-.476 3.47 3.47 0 0 0-1.768.475c-.563.32-1.026.79-1.336 1.359q-.498.884-.498 2.113t.498 2.156q.516.928 1.336 1.425a3.56 3.56 0 0 0 1.768.473q.952 0 1.768-.473.82-.474 1.316-1.381.518-.927.518-2.155m8.17-10.007v15.959h-2.46V4.142h2.46"/><mask id="d" width="52" height="25" x="32" y="3" maskUnits="userSpaceOnUse" style="mask-type:luminance"><path fill="#fff" d="M32.91 3.674h50.774v23.893H32.91z"/><path fill="#000" d="M41.364 20.253a7.9 7.9 0 0 1-3.86-.971 7.5 7.5 0 0 1-2.782-2.739q-1.013-1.769-1.013-3.968 0-2.2 1.012-3.946a7.3 7.3 0 0 1 2.783-2.718 7.76 7.76 0 0 1 3.86-.992q2.115 0 3.86.992a7.13 7.13 0 0 1 2.782 2.718q1.015 1.746 1.014 3.946t-1.014 3.968a7.3 7.3 0 0 1-2.782 2.739q-1.746.97-3.86.97m0-2.136q1.489 0 2.654-.667a4.74 4.74 0 0 0 1.81-1.942q.669-1.272.668-2.933 0-1.66-.667-2.912a4.6 4.6 0 0 0-1.812-1.918q-1.164-.67-2.653-.67-1.488 0-2.652.67a4.7 4.7 0 0 0-1.834 1.918q-.646 1.251-.647 2.912.001 1.66.647 2.933a4.9 4.9 0 0 0 1.834 1.942q1.164.667 2.652.667m12.533-8.152q.628-.818 1.704-1.38a5.2 5.2 0 0 1 2.437-.56q1.553 0 2.826.777 1.294.754 2.028 2.135.731 1.379.731 3.17t-.731 3.213a5.55 5.55 0 0 1-2.028 2.2 5.3 5.3 0 0 1-2.826.776q-1.358 0-2.414-.54a5.5 5.5 0 0 1-1.727-1.379v7.376H51.44V8.219h2.458zm7.225 4.141q0-1.229-.517-2.113a3.3 3.3 0 0 0-1.338-1.359 3.47 3.47 0 0 0-1.768-.475q-.926 0-1.768.475-.819.476-1.336 1.38-.498.907-.498 2.135 0 1.23.498 2.157.517.907 1.336 1.381a3.56 3.56 0 0 0 1.768.473q.95 0 1.768-.473.842-.497 1.338-1.425.517-.927.517-2.156m4.114 0q0-1.79.732-3.17a5.48 5.48 0 0 1 4.876-2.912q1.401 0 2.437.561 1.056.539 1.681 1.36V8.218h2.48v11.883h-2.48v-1.768q-.627.84-1.702 1.4-1.08.561-2.46.562a5.3 5.3 0 0 1-2.804-.777 5.76 5.76 0 0 1-2.026-2.2q-.734-1.424-.734-3.213m9.726.045q0-1.23-.518-2.136a3.5 3.5 0 0 0-1.314-1.38 3.47 3.47 0 0 0-1.77-.476 3.47 3.47 0 0 0-1.768.475c-.563.32-1.026.79-1.336 1.359q-.498.884-.498 2.113t.498 2.156q.517.928 1.336 1.425a3.56 3.56 0 0 0 1.768.473q.95 0 1.769-.473.82-.474 1.315-1.381.518-.927.518-2.155m8.169-10.008v15.959h-2.46V4.142z"/></mask><g mask="url(#d)"><path fill="#2F3715" d="m37.504 19.28-.194.34.006.004zm-2.782-2.739-.34.195.002.005zm0-7.914-.338-.2v.003zm10.502-2.718-.194.342.006.003.188-.344zm2.782 10.632.34.198v-.002l-.34-.194zm-3.988.907.194.339.006-.003zm1.811-1.941-.348-.183v.002zm0-5.845-.35.179.004.006zm-8.951-.002-.345-.185-.003.006zm0 5.845-.35.178.005.007zm1.834 1.941-.2.338.004.001zm2.652 2.41a7.5 7.5 0 0 1-3.67-.92l-.378.686q1.86 1.02 4.048 1.02zm-3.666-.918a7.1 7.1 0 0 1-2.639-2.598l-.675.401a7.86 7.86 0 0 0 2.927 2.878zm-2.636-2.592c-.639-1.116-.962-2.37-.962-3.774h-.784q-.001 2.297 1.065 4.164zm-.96-3.774c0-1.404.323-2.65.96-3.75l-.678-.392q-1.07 1.845-1.068 4.142zm.959-3.748a6.9 6.9 0 0 1 2.635-2.573l-.38-.687a7.7 7.7 0 0 0-2.93 2.861zm2.637-2.575a7.37 7.37 0 0 1 3.667-.94v-.786a8.16 8.16 0 0 0-4.05 1.042zm3.667-.94c1.344 0 2.564.313 3.668.94l.387-.682a8.1 8.1 0 0 0-4.055-1.044zm3.673.943a6.7 6.7 0 0 1 2.63 2.569l.679-.393a7.5 7.5 0 0 0-2.932-2.864l-.377.687zm2.63 2.569c.639 1.1.961 2.347.961 3.751h.785c0-1.529-.353-2.913-1.067-4.144zm.961 3.751c0 1.404-.322 2.658-.962 3.774l.681.388c.713-1.242 1.066-2.633 1.066-4.162zm-.96 3.77a6.9 6.9 0 0 1-2.634 2.595l.383.684a7.67 7.67 0 0 0 2.929-2.884zm-2.634 2.595a7.4 7.4 0 0 1-3.67.921l-.001.784c1.472 0 2.827-.339 4.053-1.02l-.38-.687zm-3.67-.43c1.053 0 2.008-.238 2.848-.722l-.39-.68c-.71.409-1.526.618-2.458.618zm2.853-.723a5.1 5.1 0 0 0 1.96-2.098l-.697-.362a4.33 4.33 0 0 1-1.662 1.785l.4.675zm1.959-2.097c.48-.912.714-1.954.714-3.115h-.784c0 1.053-.212 1.967-.624 2.75zm.714-3.115c0-1.16-.235-2.196-.715-3.097l-.692.37c.41.768.623 1.673.623 2.727zm-.712-3.091a4.97 4.97 0 0 0-1.966-2.08l-.39.68c.708.407 1.26.99 1.657 1.76zm-1.967-2.079c-.841-.484-1.795-.72-2.848-.72v.783c.932 0 1.747.21 2.458.618l.39-.682zm-2.848-.72c-1.053 0-2.006.236-2.848.72l.39.681c.71-.409 1.528-.618 2.458-.618zm-2.848.72a5.1 5.1 0 0 0-1.983 2.076l.691.369a4.33 4.33 0 0 1 1.682-1.764zM36.53 9.481c-.464.897-.69 1.934-.69 3.093h.784c0-1.056.205-1.963.603-2.733zm-.69 3.093c0 1.159.226 2.196.689 3.109l.7-.354c-.4-.786-.605-1.7-.605-2.755zm.693 3.116c.478.893 1.138 1.597 1.979 2.095l.4-.675a4.5 4.5 0 0 1-1.687-1.789zm1.983 2.095c.842.484 1.795.723 2.848.723v-.784c-.93 0-1.747-.209-2.457-.617zm15.382-7.822h-.392v1.16l.704-.92zM60.864 8.8l-.205.334.008.003zm2.028 8.518.346.182.002-.003zm-7.27 2.437-.182.347.005.003zm-1.724-1.38.304-.248-.696-.854v1.102zm0 7.376v.391h.392v-.391zm-2.459 0h-.39v.391h.39zm0-17.533v-.395h-.39v.393h.39zm2.459 0h.392v-.395h-.392zm6.708 3.773-.344.188.005.01zm-1.338-1.359-.196.34.01.005.186-.343zm-3.537 0-.192-.342-.005.003zm-1.336 1.38-.34-.194-.005.006.343.188zm0 4.292-.347.185.006.01.34-.194zm1.336 1.381-.197.34h.005zm3.537 0 .197.34.003-.002zm1.338-1.424-.344-.191-.003.007zm-6.396-6.059c.376-.493.896-.918 1.572-1.27l-.36-.696c-.761.395-1.378.891-1.835 1.49zm1.572-1.27q.984-.516 2.257-.517V7.63c-.962 0-1.836.198-2.617.605zm2.257-.517c.966 0 1.836.24 2.62.72l.41-.671a5.7 5.7 0 0 0-3.03-.833zm2.628.722a4.9 4.9 0 0 1 1.878 1.98l.692-.367a5.67 5.67 0 0 0-2.176-2.289zm1.878 1.98c.454.858.687 1.85.687 2.987h.784c0-1.248-.255-2.37-.78-3.354zm.687 2.987c0 1.138-.233 2.148-.69 3.035l.698.358c.521-1.01.776-2.144.776-3.393zm-.688 3.032a5.16 5.16 0 0 1-1.886 2.047l.412.668a5.94 5.94 0 0 0 2.168-2.35zm-1.885 2.046a4.93 4.93 0 0 1-2.62.72v.785a5.7 5.7 0 0 0 3.03-.835l-.411-.669zm-2.62.72c-.852 0-1.595-.17-2.238-.496l-.356.699c.767.39 1.635.582 2.593.582zm-2.232-.493a5.15 5.15 0 0 1-1.605-1.282l-.608.496c.483.591 1.101 1.083 1.846 1.479zm-2.3-1.034v7.376h.783v-7.377zm.39 6.983H51.44v.784h2.458zm-2.065.393V8.218h-.784v17.531h.784zM51.44 8.609h2.458v-.784h-2.459zm2.066-.391v1.747h.784V8.218zm8.009 5.886c0-.875-.185-1.65-.572-2.311l-.676.397c.303.518.462 1.15.462 1.914zm-.566-2.3a3.7 3.7 0 0 0-1.495-1.517l-.373.69c.49.263.884.659 1.181 1.202zm-1.484-1.51a3.86 3.86 0 0 0-1.966-.528v.784c.565 0 1.086.14 1.573.421zm-1.966-.528c-.687 0-1.344.176-1.96.524l.385.684a3.16 3.16 0 0 1 1.575-.424zm-1.965.527c-.612.354-1.105.867-1.48 1.525l.681.388c.314-.55.713-.955 1.194-1.235zm-1.484 1.531c-.367.672-.544 1.451-.544 2.324h.784c0-.766.154-1.412.448-1.948zm-.544 2.324c0 .873.176 1.657.542 2.341l.692-.37c-.296-.553-.45-1.205-.45-1.971zm.548 2.352c.375.657.868 1.169 1.48 1.523l.395-.678a3.24 3.24 0 0 1-1.195-1.235l-.68.388zm1.485 1.526a3.94 3.94 0 0 0 1.96.526v-.785a3.16 3.16 0 0 1-1.575-.424zm1.96.526c.702 0 1.36-.177 1.966-.528l-.393-.68c-.477.28-1.02.426-1.573.423zm1.969-.53c.627-.37 1.121-.9 1.482-1.576l-.69-.369a3.16 3.16 0 0 1-1.191 1.27zm1.48-1.57c.382-.686.567-1.471.567-2.348h-.784c0 .763-.163 1.415-.469 1.966zm5.022-5.518-.344-.188-.003.004zm2.026-2.135.2.337h.003zm5.285-.216-.188.345.009.005zm1.681 1.36-.312.238.705.922v-1.16zm0-1.725v-.395h-.392v.393h.393zm2.48 0h.392v-.395h-.391v.393zm0 11.882v.391h.392V20.1zm-2.48 0h-.392v.391h.393zm0-1.768h.393v-1.184l-.708.95zm-6.966 1.186-.209.333.006.001zm-2.026-2.2-.35.18.005.007zm8.474-5.306-.343.188.003.008zm-4.852-1.38.19.344.008-.005zm-1.336 1.36-.34-.195-.002.002zm0 4.27-.347.184.003.006zm1.337 1.423-.204.335.01.006zm4.851-1.381-.342-.191v.003zm-8.816-2.2c0-1.138.233-2.13.687-2.986l-.692-.368c-.523.986-.78 2.106-.78 3.354zm.687-2.982a5.1 5.1 0 0 1 1.881-1.986l-.4-.673a5.87 5.87 0 0 0-2.17 2.284zm1.884-1.986a5.04 5.04 0 0 1 2.643-.721V7.63a5.8 5.8 0 0 0-3.046.832zm2.643-.721c.883 0 1.627.176 2.25.513l.376-.69c-.759-.409-1.639-.607-2.626-.607zm2.26.518c.66.337 1.172.756 1.548 1.248l.625-.476a5.2 5.2 0 0 0-1.816-1.471zm2.253 1.01V8.217h-.785v1.724zm-.392-1.334h2.478v-.784h-2.478zm2.087-.391V20.1h.784V8.218zm.393 11.49h-2.48v.783h2.478zm-2.088.392v-1.768h-.785V20.1zm-.708-2.003c-.376.507-.896.938-1.57 1.29l.362.694c.763-.396 1.38-.9 1.837-1.516zm-1.57 1.29c-.656.34-1.41.514-2.276.514v.786c.973 0 1.857-.199 2.638-.606zm-2.276.514a4.9 4.9 0 0 1-2.599-.718l-.409.67a5.66 5.66 0 0 0 3.008.834zm-2.596-.716a5.37 5.37 0 0 1-1.89-2.054l-.69.374c.533.99 1.254 1.775 2.163 2.344zm-1.887-2.046c-.457-.887-.69-1.897-.69-3.035h-.784q-.001 1.875.776 3.393zm9.037-2.991c0-.875-.185-1.658-.57-2.33l-.681.39c.306.536.467 1.176.467 1.94zm-.567-2.324a3.87 3.87 0 0 0-1.462-1.53l-.393.677c.478.278.87.683 1.168 1.23zm-1.462-1.53a3.86 3.86 0 0 0-1.965-.528v.784c.564 0 1.085.14 1.572.421zm-1.965-.528q-1.055 0-1.966.526l.395.68a3.1 3.1 0 0 1 1.57-.423zm-1.957.521a3.87 3.87 0 0 0-1.489 1.509l.681.388c.314-.548.71-.947 1.186-1.21zm-1.49 1.512c-.37.66-.547 1.432-.547 2.304h.784c0-.766.154-1.402.447-1.922zm-.547 2.304c0 .873.177 1.657.542 2.341l.692-.368c-.296-.553-.448-1.207-.448-1.972h-.786zm.545 2.349c.375.672.867 1.197 1.479 1.566l.405-.672a3.37 3.37 0 0 1-1.198-1.278zm1.488 1.574a3.94 3.94 0 0 0 1.96.524v-.784q-.819.001-1.575-.424zm1.96.524c.702 0 1.36-.176 1.966-.527l-.393-.68c-.477.28-1.02.426-1.572.423zm1.966-.527a3.9 3.9 0 0 0 1.463-1.532l-.687-.378c-.267.51-.672.938-1.169 1.23zm1.462-1.53c.382-.685.567-1.472.567-2.347h-.785c0 .763-.16 1.414-.468 1.965zM83.13 4.14h.391v-.391h-.393v.391zm0 15.96v.39h.391v-.39h-.393zm-2.46 0h-.39v.39h.39zm0-15.96v-.391h-.39v.391zm2.067 0V20.1h.784V4.139zm.391 15.567H80.67v.784h2.458zm-2.065.393V4.14l-.784-.002V20.1zm-.392-15.567h2.457v-.784H80.67z"/></g></g></g></g><defs><clipPath id="a"><path fill="#fff" d="M0 0h86v26.87H0z"/></clipPath><clipPath id="b"><path fill="#fff" d="M0 0h86v26.87H0z"/></clipPath><clipPath id="c"><path fill="#fff" d="M.441 0h85.12v26.88H.441z"/></clipPath></defs></svg>