<svg xmlns="http://www.w3.org/2000/svg" width="74" height="26" fill="none"><g clip-path="url(#a)"><mask id="b" width="74" height="26" x="0" y="0" maskUnits="userSpaceOnUse" style="mask-type:luminance"><path fill="#fff" d="M73.684 0H0v26h73.684z"/></mask><g mask="url(#b)"><path fill="#2F3715" d="M8.222 13.04 12.85 6.6h-1.928c-.863 0-1.421.317-1.878.95l-2.446 3.405-2.36-3.405c-.457-.633-1.014-.95-1.879-.95H.432L5 13.04l-5 7.02h1.828c.862 0 1.42-.317 1.877-.95l2.892-3.986 6.776 9.74c.43.633 1.015.95 1.878.95h1.979zm36.976 7.015h2.614V6.6h-2.614zm-20.734 0h2.615V6.6h-2.615zm39.64 4.75L73.565 6.6h-1.422c-.862 0-1.523.264-1.877.95l-3.724 7.205-3.223-7.205c-.322-.713-1.015-.95-1.878-.95h-1.368l4.979 10.98-4.337 8.233h1.42c.878 0 1.59-.289 1.97-1.002zM30.197 6.6v13.46h2.614v-9.237c.812-1.188 1.98-1.926 3.426-1.926 1.927 0 3.249 1.266 3.249 3.8v6.07a1.27 1.27 0 0 0 .335.926c.114.121.252.217.404.28s.315.093.478.087h1.396v-7.84c0-3.482-2.131-5.91-5.228-5.91a5.7 5.7 0 0 0-4.06 1.61V6.6zm22.46 8.686c0 2.93 1.725 5.012 4.818 5.012a6.4 6.4 0 0 0 1.904-.264l-.527-2.376a5 5 0 0 1-1.192.132c-1.269 0-2.387-.712-2.387-2.559V9.022h3.656L57.86 6.6h-2.589V1.19L52.66 2.376V6.6h-2.766v2.422h2.766zM16.42 9.022v11.025h2.613V9.022h3.35V6.6h-3.35V5.598c0-2.297 1.32-3.062 2.614-3.062.3-.002.6.043.888.132l.533-2.402a4.4 4.4 0 0 0-1.624-.264c-3.247 0-5.024 2.505-5.024 5.542V6.6h-1.372l-1.65 2.422z"/></g></g><defs><clipPath id="a"><path fill="#fff" d="M0 0h74v26H0z"/></clipPath></defs></svg>