<svg xmlns="http://www.w3.org/2000/svg" width="75" height="20" fill="none"><g clip-path="url(#a)"><g clip-path="url(#b)"><g clip-path="url(#c)"><path fill="#2F3715" d="M17.223 10.62q-.001 2.819-1.031 4.847-1.032 2.02-2.828 3.11-1.786 1.085-4.065 1.084-2.286 0-4.083-1.083-1.787-1.091-2.818-3.12t-1.03-4.838q-.001-2.819 1.03-4.84 1.03-2.025 2.819-3.11 1.796-1.091 4.082-1.092 2.276 0 4.066 1.092 1.795 1.083 2.827 3.11 1.03 2.021 1.03 4.84m-2.63 0q0-2.148-.695-3.618-.69-1.478-1.892-2.235a4.9 4.9 0 0 0-2.708-.766q-1.52 0-2.714.766-1.195.758-1.892 2.235-.687 1.47-.687 3.618t.687 3.626q.696 1.47 1.892 2.235 1.193.757 2.715.757a4.95 4.95 0 0 0 2.707-.757q1.204-.765 1.89-2.235.697-1.477.696-3.626m9.576 9.092q-1.256 0-2.268-.463a3.8 3.8 0 0 1-1.608-1.367q-.585-.894-.585-2.191 0-1.118.43-1.84a3.2 3.2 0 0 1 1.16-1.143 6 6 0 0 1 1.633-.636q.91-.215 1.84-.326l1.924-.224q.739-.094 1.074-.3.335-.207.335-.671v-.06q0-1.127-.635-1.744-.628-.619-1.873-.62-1.297 0-2.046.576-.739.568-1.023 1.264l-2.415-.55q.43-1.203 1.255-1.943a5.1 5.1 0 0 1 1.916-1.082 7.5 7.5 0 0 1 2.277-.344q.791 0 1.676.19.895.18 1.668.669.782.49 1.28 1.4.5.904.5 2.347v8.766h-2.51v-1.805h-.104a3.7 3.7 0 0 1-.747.98 4 4 0 0 1-1.28.8q-.783.317-1.874.317m.558-2.061q1.066 0 1.822-.423c.48-.252.882-.633 1.16-1.099q.405-.69.404-1.47v-1.702q-.138.139-.532.258a8 8 0 0 1-.886.199l-.97.146-.792.102q-.747.096-1.366.317c-.376.13-.712.351-.979.646q-.36.413-.361 1.1 0 .953.704 1.444.704.481 1.796.482m19.27-8.209-2.329.413a2.8 2.8 0 0 0-.463-.851 2.3 2.3 0 0 0-.843-.66q-.532-.26-1.333-.259-1.09 0-1.822.49-.73.481-.73 1.246 0 .661.49 1.066t1.582.66l2.097.483q1.821.42 2.715 1.297.894.876.894 2.278a3.46 3.46 0 0 1-.688 2.114q-.679.919-1.899 1.443-1.212.525-2.81.525-2.217 0-3.619-.946-1.4-.953-1.718-2.707l2.484-.378q.231.97.954 1.47.72.49 1.882.49 1.263 0 2.019-.526.757-.531.757-1.297 0-.617-.465-1.04-.455-.42-1.4-.636l-2.234-.49q-1.85-.42-2.734-1.34-.876-.92-.876-2.329 0-1.169.652-2.044.655-.879 1.805-1.367 1.152-.499 2.639-.5 2.14 0 3.369.93 1.23.918 1.625 2.466zm3.083 9.978V6.22h2.57v13.2zm1.298-15.237q-.67 0-1.151-.447a1.45 1.45 0 0 1-.474-1.083q0-.635.474-1.082a1.62 1.62 0 0 1 1.15-.457q.671 0 1.144.457.481.447.482 1.082-.001.628-.482 1.083a1.6 1.6 0 0 1-1.143.447m14.62 5.26-2.33.412a2.8 2.8 0 0 0-.463-.851 2.3 2.3 0 0 0-.842-.66q-.532-.26-1.333-.259-1.09 0-1.82.49-.73.481-.731 1.246 0 .661.49 1.066.489.405 1.58.66l2.099.483q1.82.42 2.714 1.297.893.876.893 2.278a3.46 3.46 0 0 1-.686 2.114q-.68.919-1.9 1.443-1.212.525-2.81.525-2.217 0-3.618-.946-1.401-.953-1.718-2.707l2.482-.378q.234.97.955 1.47.722.49 1.881.49 1.265 0 2.02-.526.757-.531.757-1.297a1.35 1.35 0 0 0-.464-1.04q-.456-.42-1.401-.636l-2.235-.49q-1.848-.42-2.732-1.34-.877-.92-.878-2.329 0-1.169.654-2.044.652-.879 1.805-1.367 1.152-.499 2.637-.5 2.142 0 3.37.93 1.23.918 1.624 2.466"/><mask id="d" width="64" height="22" x="0" y="-1" maskUnits="userSpaceOnUse" style="mask-type:luminance"><path fill="#fff" d="M0-.432h63.808v21.27H0z"/><path fill="#000" d="M17.223 10.62q-.001 2.819-1.031 4.847-1.032 2.02-2.828 3.11-1.786 1.085-4.065 1.084-2.286 0-4.083-1.083-1.787-1.091-2.818-3.12t-1.03-4.838q-.001-2.819 1.03-4.84 1.03-2.025 2.819-3.11 1.796-1.091 4.082-1.092 2.276 0 4.066 1.092 1.795 1.083 2.827 3.11 1.03 2.021 1.03 4.84m-2.63 0q0-2.148-.695-3.618-.69-1.478-1.892-2.235a4.9 4.9 0 0 0-2.708-.766q-1.52 0-2.714.766-1.195.758-1.892 2.235-.687 1.47-.687 3.618t.687 3.626q.696 1.47 1.892 2.235 1.193.757 2.715.757a4.95 4.95 0 0 0 2.707-.757q1.204-.765 1.89-2.235.697-1.477.696-3.626m9.576 9.092q-1.256 0-2.268-.463a3.8 3.8 0 0 1-1.608-1.367q-.585-.894-.585-2.191 0-1.118.43-1.84a3.2 3.2 0 0 1 1.16-1.143 6 6 0 0 1 1.633-.636q.91-.215 1.84-.326l1.924-.224q.739-.094 1.074-.3.335-.207.335-.671v-.06q0-1.127-.635-1.744-.628-.619-1.873-.62-1.297 0-2.046.576-.739.568-1.023 1.264l-2.415-.55q.43-1.203 1.255-1.943a5.1 5.1 0 0 1 1.916-1.082 7.5 7.5 0 0 1 2.277-.344q.791 0 1.676.19.895.18 1.668.669.782.49 1.28 1.4.5.904.5 2.347v8.766h-2.51v-1.805h-.104a3.7 3.7 0 0 1-.747.98 4 4 0 0 1-1.28.8q-.783.317-1.874.317m.558-2.061q1.066 0 1.822-.423c.48-.252.882-.633 1.16-1.099q.405-.69.404-1.47v-1.702q-.138.139-.532.258a8 8 0 0 1-.886.199l-.97.146-.792.102q-.747.096-1.366.317c-.376.13-.712.351-.979.646q-.36.413-.361 1.1 0 .953.704 1.444.704.481 1.796.482m19.27-8.209-2.329.413a2.8 2.8 0 0 0-.463-.851 2.3 2.3 0 0 0-.843-.66q-.532-.26-1.333-.259-1.09 0-1.822.49-.73.481-.73 1.246 0 .661.49 1.066t1.582.66l2.097.483q1.821.42 2.715 1.297.894.876.894 2.278a3.46 3.46 0 0 1-.688 2.114q-.679.919-1.899 1.443-1.212.525-2.81.525-2.217 0-3.619-.946-1.4-.953-1.718-2.707l2.484-.378q.231.97.954 1.47.72.49 1.882.49 1.263 0 2.019-.526.757-.531.757-1.297 0-.617-.465-1.04-.455-.42-1.4-.636l-2.234-.49q-1.85-.42-2.734-1.34-.876-.92-.876-2.329 0-1.169.652-2.044.655-.879 1.805-1.367 1.152-.499 2.639-.5 2.14 0 3.369.93 1.23.918 1.625 2.466zm3.083 9.978V6.22h2.57v13.2zm1.298-15.237q-.67 0-1.151-.447a1.45 1.45 0 0 1-.474-1.083q0-.635.474-1.082a1.62 1.62 0 0 1 1.15-.457q.671 0 1.144.457.481.447.482 1.082-.001.628-.482 1.083a1.6 1.6 0 0 1-1.143.447m14.62 5.26-2.33.412a2.8 2.8 0 0 0-.463-.851 2.3 2.3 0 0 0-.842-.66q-.532-.26-1.333-.259-1.09 0-1.82.49-.73.481-.731 1.246 0 .661.49 1.066.489.405 1.58.66l2.099.483q1.82.42 2.714 1.297.893.876.893 2.278a3.46 3.46 0 0 1-.686 2.114q-.68.919-1.9 1.443-1.212.525-2.81.525-2.217 0-3.618-.946-1.401-.953-1.718-2.707l2.482-.378q.234.97.955 1.47.722.49 1.881.49 1.265 0 2.02-.526.757-.531.757-1.297a1.35 1.35 0 0 0-.464-1.04q-.456-.42-1.401-.636l-2.235-.49q-1.848-.42-2.732-1.34-.877-.92-.878-2.329 0-1.169.654-2.044.652-.879 1.805-1.367 1.152-.499 2.637-.5 2.142 0 3.37.93 1.23.918 1.624 2.466"/></mask><g mask="url(#d)"><path fill="#2F3715" d="m13.896 7.001-.337.156.001.003zm-1.89-2.234-.201.313.002.003zm-5.422 0 .198.314h.002zm-1.892 9.48-.337.156v.003zm1.892 2.233-.202.314.002.001zm10.266-5.86c0 1.833-.335 3.389-.99 4.678l.663.337c.72-1.415 1.071-3.091 1.071-5.015zm-.99 4.678c-.66 1.29-1.556 2.273-2.69 2.962l.387.636c1.262-.765 2.249-1.857 2.965-3.26zm-2.688 2.959c-1.13.685-2.417 1.03-3.873 1.03v.744c1.58 0 3.003-.375 4.258-1.135zm-3.873 1.03c-1.463 0-2.756-.347-3.89-1.03l-.384.638c1.26.76 2.689 1.136 4.274 1.136zm-3.888-1.029q-1.693-1.03-2.681-2.97l-.664.339q1.074 2.114 2.957 3.268l.388-.635zm-2.681-2.97c-.655-1.29-.991-2.842-.991-4.67H.994c0 1.919.352 3.593 1.072 5.009zm-.991-4.67c0-1.834.336-3.384.99-4.667l-.663-.34C1.347 7.02.994 8.693.994 10.617zm.99-4.667c.66-1.295 1.553-2.28 2.68-2.963l-.385-.638c-1.256.763-2.242 1.854-2.958 3.262zm2.68-2.963C6.545 2.3 7.838 1.951 9.3 1.951v-.745q-2.382-.002-4.275 1.146zM9.3 1.951c1.456 0 2.742.348 3.871 1.037l.386-.636C12.303 1.586 10.88 1.206 9.3 1.206zm3.871 1.037c1.133.684 2.03 1.668 2.69 2.963l.663-.34c-.716-1.406-1.705-2.498-2.967-3.26zm2.69 2.963c.655 1.283.99 2.834.99 4.669h.745c0-1.924-.351-3.599-1.072-5.008zm-.895 4.669c0-1.47-.238-2.735-.732-3.778l-.673.318c.434.917.66 2.066.66 3.46zm-.73-3.776c-.485-1.04-1.16-1.844-2.03-2.392l-.398.63c.733.46 1.32 1.145 1.752 2.075zm-2.028-2.39A5.3 5.3 0 0 0 9.3 3.63v.743c.942 0 1.773.238 2.506.706zM9.3 3.63c-1.08 0-2.056.27-2.917.822l.402.628c.731-.468 1.566-.707 2.515-.707zm-2.917.822c-.865.547-1.537 1.35-2.026 2.39l.674.317c.44-.932 1.025-1.618 1.752-2.079l-.397-.63zm-2.026 2.39c-.49 1.042-.723 2.305-.723 3.775h.744c0-1.395.223-2.542.653-3.458zm-.723 3.775c0 1.47.234 2.737.723 3.784l.674-.314c-.43-.923-.653-2.076-.653-3.47zm.723 3.786c.49 1.034 1.163 1.837 2.026 2.39l.402-.629c-.73-.467-1.316-1.154-1.754-2.08zm2.026 2.39c.861.544 1.838.814 2.917.814v-.745c-.95 0-1.785-.235-2.517-.699l-.397.63zm2.917.814c1.074 0 2.046-.27 2.907-.814l-.399-.63a4.6 4.6 0 0 1-2.51.7v.744zm2.907-.814c.87-.553 1.544-1.357 2.027-2.391l-.673-.316c-.434.924-1.02 1.61-1.754 2.078zm2.027-2.391c.494-1.048.732-2.314.732-3.786h-.744c0 1.395-.227 2.547-.661 3.47zm7.666 4.844-.156.337h.001zm-1.607-1.367-.312.204.002.001.312-.205zm4.478-6.136-.042-.37.04.369zm1.925-.224.042.369h.006zm.774-2.776-.261.265v.003zm-4.942 1.22-.082.364.308.07.119-.293zm-2.415-.55-.35-.124-.142.395.41.093zm3.17-3.024.111.355h.003zm3.954-.156-.076.365h.002zm3.449 13.186v.372h.371v-.372zm-2.51 0h-.373v.372h.373zm0-1.805h.371v-.372h-.371zm-.104 0v-.372h-.23l-.103.206zm.043-4.658h.373v-.9l-.635.637zm-.532.258.104.357h.004zm-.886.198.057.367h.007l-.063-.368zm-.97.146.047.369h.006zm-.791.102.047.369h.002zm-2.002 3.507-.213.306h.003zm1.238 2.17a5 5 0 0 1-2.115-.429l-.31.677c.762.34 1.59.51 2.425.499zm-2.113-.427a3.45 3.45 0 0 1-1.454-1.236l-.62.412a4.2 4.2 0 0 0 1.76 1.497l.315-.673zm-1.452-1.234c-.342-.523-.525-1.178-.525-1.987h-.744c0 .922.208 1.728.645 2.395zm-.525-1.987c0-.7.136-1.242.379-1.649l-.641-.381c-.33.556-.482 1.24-.482 2.03h.746zm.379-1.649a2.8 2.8 0 0 1 1.025-1.01l-.372-.646a3.55 3.55 0 0 0-1.294 1.276zm1.025-1.01q.68-.394 1.534-.596l-.173-.725a6.4 6.4 0 0 0-1.733.675zm1.534-.596a16 16 0 0 1 1.797-.32l-.088-.74q-.958.114-1.882.335l.173.723zm1.797-.32 1.924-.223-.085-.74-1.926.224zm1.927-.223c.507-.066.928-.173 1.222-.355l-.39-.634c-.153.095-.447.188-.926.25l.095.737zm1.222-.355c.354-.217.513-.575.513-.987h-.744c0 .207-.067.298-.158.355l.39.634zm.513-.987v-.06h-.744v.06zm0-.06c0-.822-.234-1.51-.748-2.011l-.52.534c.334.325.524.799.524 1.478zm-.747-2.01c-.512-.505-1.248-.726-2.134-.726V8.5c.773 0 1.286.192 1.61.51zm-2.134-.726c-.917 0-1.689.204-2.273.654l.454.59c.412-.318 1.007-.498 1.819-.498zm-2.273.652c-.532.412-.922.881-1.14 1.42l.69.28c.158-.39.451-.76.904-1.108l-.454-.59zm-.713 1.197-2.415-.55-.165.726 2.415.55zm-2.147-.06c.27-.754.655-1.346 1.153-1.792l-.497-.554c-.604.539-1.053 1.242-1.357 2.094zm1.153-1.792a4.7 4.7 0 0 1 1.778-1.004l-.22-.711a5.5 5.5 0 0 0-2.056 1.16zm1.78-1.005a7.1 7.1 0 0 1 2.165-.326v-.745q-1.25 0-2.39.362zm2.165-.326q.747 0 1.6.18l.155-.727a8.4 8.4 0 0 0-1.756-.198zm1.602.181a4.6 4.6 0 0 1 1.542.62l.398-.628a5.3 5.3 0 0 0-1.793-.722zm1.544.621c.46.29.845.705 1.151 1.264l.653-.357a4.1 4.1 0 0 0-1.41-1.538zm1.151 1.264c.292.529.454 1.245.454 2.168h.743c0-1.001-.172-1.852-.544-2.527zm.454 2.168v8.766h.743v-8.766zm.372 8.394h-2.51v.745h2.51zm-2.141.372v-1.805H27.8v1.805zm-.372-2.177h-.104v.745h.104zm-.437.206a3.3 3.3 0 0 1-.672.879l.516.534a4 4 0 0 0 .823-1.08zm-.672.879a3.6 3.6 0 0 1-1.163.721l.281.69a4.3 4.3 0 0 0 1.398-.877zm-1.163.721c-.466.19-1.04.29-1.732.29v.746c.761 0 1.436-.112 2.013-.346zm-1.174-1.027c.759 0 1.433-.15 2.003-.468l-.362-.651c-.438.244-.979.374-1.64.374zm2.003-.468c.562-.31 1-.72 1.301-1.238l-.644-.375c-.226.387-.561.71-1.018.962zm1.3-1.237a3.23 3.23 0 0 0 .455-1.659h-.745q.001.68-.353 1.282zm.455-1.659v-1.701h-.745v1.701zm-.635-1.964c-.023.022-.122.085-.379.165l.217.712c.27-.083.526-.189.688-.35zm-.373.163a8 8 0 0 1-.845.189l.127.733q.512-.088.925-.207zm-.84.188-.967.146.107.737.975-.148zm-.961.144-.794.104.1.737.789-.102zm-.79.104a6.7 6.7 0 0 0-1.446.337l.252.7a6 6 0 0 1 1.288-.299zm-1.448.337a2.7 2.7 0 0 0-1.131.749l.56.49c.198-.226.47-.41.828-.54zm-1.131.749c-.315.359-.454.82-.454 1.346h.745c0-.393.102-.664.269-.856zm-.454 1.346c0 .741.284 1.344.865 1.75l.425-.612c-.357-.25-.545-.61-.545-1.138zm.868 1.75c.546.372 1.224.546 2.006.546v-.744c-.675 0-1.194-.149-1.588-.417zm21.276-8.033.064.367.396-.071-.1-.389zm-2.33.412-.354.116.1.308.32-.057zm-.463-.85-.296.226.002.005zm-3.997-.43.205.312.003-.003zm-3.687 7.46-.057-.37-.377.059.068.377zm2.484-.379.362-.085-.08-.335-.338.053zm.955 1.47-.213.307.003.001zm3.9-.034.213.305h.003zm.292-2.338-.252.274.003.001zm-1.4-.636.083-.364h-.003zm-2.234-.49-.083.363h.002zm-2.734-1.34-.269.256.001.002zm1.582-5.74.146.34h.002zm7.567 2.527-2.33.414.13.733 2.33-.412zm-1.911.665a3.1 3.1 0 0 0-.525-.965l-.586.46c.189.239.32.483.403.736zm-.522-.961a2.7 2.7 0 0 0-.976-.771l-.324.67c.312.15.543.338.709.553zm-.976-.771c-.42-.203-.924-.295-1.494-.295v.744c.496 0 .879.08 1.17.221l.326-.67zm-1.494-.295c-.783 0-1.468.177-2.028.553l.414.618c.411-.277.943-.427 1.614-.427zM37 8.265c-.573.378-.896.9-.896 1.555h.744c0-.364.163-.67.563-.934zm-.896 1.555c0 .547.208 1.01.624 1.353l.475-.574a.94.94 0 0 1-.355-.779zm.624 1.353c.393.323.987.56 1.734.737l.17-.724c-.709-.168-1.168-.372-1.43-.587zm1.734.737 2.099.482.167-.726-2.097-.482zm2.099.482c1.176.273 2.009.68 2.538 1.2l.522-.532c-.664-.65-1.643-1.106-2.893-1.394zm2.538 1.2c.516.506.782 1.165.782 2.012h.745c0-1.021-.33-1.88-1.007-2.544zm.782 2.012c0 .713-.204 1.34-.614 1.893l.597.442a3.83 3.83 0 0 0 .762-2.335zm-.614 1.893c-.407.553-.985.995-1.748 1.323l.295.683c.865-.37 1.554-.89 2.052-1.564zM41.52 18.82q-1.126.491-2.663.493v.745c1.106 0 2.094-.18 2.958-.553zm-2.663.493c-1.426 0-2.553-.303-3.41-.882l-.415.618c1.01.683 2.297 1.009 3.825 1.009zm-3.407-.879c-.847-.577-1.367-1.39-1.561-2.467l-.735.133c.229 1.262.857 2.253 1.878 2.95l.418-.617zm-1.872-2.032 2.483-.378-.112-.738-2.483.379zm2.066-.66c.172.723.536 1.298 1.103 1.69l.424-.613c-.395-.274-.666-.68-.804-1.25zm1.105 1.691c.56.38 1.269.553 2.093.553v-.743c-.724 0-1.27-.153-1.674-.425zm2.093.553c.89 0 1.646-.184 2.233-.59l-.427-.61c-.421.291-1.012.457-1.806.457zm2.234-.591c.579-.409.913-.945.913-1.602h-.744c0 .363-.169.692-.597.992zm.913-1.602c0-.52-.2-.965-.585-1.315l-.5.55a.98.98 0 0 1 .341.765zm-.582-1.313c-.372-.344-.91-.576-1.571-.726l-.166.727c.6.136.994.326 1.23.546zm-1.573-.726-2.236-.49-.16.726 2.235.49zm-2.233-.49c-1.194-.272-2.028-.694-2.548-1.236l-.538.517c.66.685 1.65 1.156 2.921 1.445zm-2.547-1.233c-.51-.538-.772-1.218-.772-2.073h-.745c0 1.023.32 1.895.978 2.586zm-.772-2.073c0-.705.194-1.308.578-1.824l-.597-.444a3.7 3.7 0 0 0-.726 2.268zm.578-1.824c.391-.524.937-.941 1.653-1.246l-.292-.685c-.82.349-1.479.842-1.958 1.487zm1.655-1.248c.713-.307 1.54-.468 2.49-.468v-.743c-1.033 0-1.964.173-2.787.53l.295.683zm2.49-.468c1.375 0 2.41.301 3.145.854l.448-.594c-.905-.684-2.116-1.003-3.593-1.003zm3.146.855c.747.56 1.242 1.31 1.486 2.26l.722-.184c-.284-1.108-.87-2.006-1.761-2.671zm4.93 12.147h-.373v.372h.373zm0-13.201v-.372h-.373v.373zm2.57 0h.373v-.372h-.373zm0 13.2v.373h.373v-.372zM47.225 3.737l-.257.27.004.002zm2.297-2.166-.26.267.003.004zM47.45 19.42V6.219h-.744l.001 13.2zm-.37-12.83h2.57v-.744h-2.57zm2.198-.371v13.2h.746v-13.2h-.748zm.371 12.827h-2.57l.002.745h2.57zM48.376 3.81a1.26 1.26 0 0 1-.899-.348l-.505.545c.392.364.865.547 1.404.547zm-.893-.343a1.08 1.08 0 0 1-.359-.816h-.744c0 .525.203.982.587 1.352zm-.359-.816a1.06 1.06 0 0 1 .358-.812l-.512-.54a1.8 1.8 0 0 0-.59 1.352zm.358-.812a1.24 1.24 0 0 1 .894-.353V.742c-.541 0-1.015.188-1.406.558zm.894-.353c.353 0 .641.115.885.35l.516-.535a1.96 1.96 0 0 0-1.4-.56zm.89.354a1.06 1.06 0 0 1 .362.811h.745a1.8 1.8 0 0 0-.6-1.355zm.362.811c0 .31-.113.576-.364.813l.51.542a1.8 1.8 0 0 0 .599-1.355zm-.364.813a1.23 1.23 0 0 1-.888.346v.744c.54 0 1.013-.184 1.398-.548zm13.733 5.977.065.367.394-.071-.1-.389zm-2.33.412-.354.116.102.308.317-.057zm-.464-.85-.295.226.003.005zm-3.995-.43.204.312.003-.003zm1.34 2.973-.086.363h.003zm-5.027 4.487-.057-.37-.378.059.068.377zm2.483-.379.363-.085-.08-.335-.34.053zm.954 1.47-.213.307.005.001zm4.194-2.372-.252.274.001.001zm-1.4-.636.082-.364h-.003zm-2.235-.49-.083.363h.003zm-2.733-1.34-.269.256v.002zm1.581-5.74.146.34h.002zm7.567 2.527-2.329.414.13.733 2.329-.412zm-1.91.665a3.1 3.1 0 0 0-.525-.965l-.586.46q.28.358.402.736zm-.522-.961a2.7 2.7 0 0 0-.976-.771l-.326.67c.312.15.546.338.71.553zm-.976-.771c-.42-.203-.924-.295-1.494-.295v.744c.496 0 .877.08 1.168.221zm-1.494-.295c-.784 0-1.468.177-2.03.553l.415.618c.41-.277.943-.427 1.615-.427zm-2.028.551c-.573.379-.898.902-.898 1.557h.745c0-.364.163-.67.563-.934zm-.898 1.557c0 .547.21 1.01.626 1.353l.473-.574a.94.94 0 0 1-.354-.779zm.626 1.353c.393.323.985.56 1.733.737l.17-.724c-.708-.168-1.169-.372-1.43-.587zm1.735.737 2.097.482.166-.726-2.097-.482zm2.097.482c1.179.273 2.01.68 2.537 1.2l.522-.532c-.662-.65-1.642-1.106-2.893-1.394zm2.537 1.2c.516.506.783 1.165.783 2.012h.744c0-1.021-.329-1.88-1.005-2.544l-.52.532zm.783 2.012c0 .713-.204 1.34-.614 1.893l.598.442c.503-.674.77-1.494.76-2.335zm-.614 1.893c-.408.553-.984.995-1.747 1.323l.294.683c.864-.37 1.554-.89 2.051-1.564zm-1.747 1.323c-.751.326-1.638.493-2.663.493v.745c1.106 0 2.094-.18 2.958-.553zm-2.663.493c-1.428 0-2.555-.303-3.41-.882l-.417.618c1.013.683 2.297 1.009 3.827 1.009zm-3.409-.879c-.846-.577-1.366-1.39-1.562-2.467l-.733.133c.23 1.262.856 2.253 1.877 2.95l.418-.617zm-1.871-2.032 2.481-.378-.11-.738-2.485.379zm2.064-.66c.173.723.536 1.298 1.103 1.69l.424-.613c-.394-.274-.666-.678-.802-1.25zm1.108 1.691c.561.38 1.267.553 2.09.553v-.743c-.723 0-1.27-.153-1.674-.425zm2.09.553c.89 0 1.647-.184 2.233-.59l-.425-.61c-.423.291-1.014.457-1.808.457zm2.234-.591c.58-.409.915-.945.915-1.602h-.746c0 .363-.17.692-.598.992zm.915-1.602a1.72 1.72 0 0 0-.587-1.315l-.5.55a.98.98 0 0 1 .341.765zm-.584-1.313c-.372-.344-.91-.576-1.571-.726l-.165.727c.599.136.994.326 1.231.546zm-1.574-.726-2.235-.49-.159.726 2.235.49zm-2.232-.49c-1.192-.272-2.026-.694-2.547-1.236l-.537.517c.66.685 1.649 1.156 2.92 1.445zm-2.545-1.233c-.51-.538-.774-1.218-.774-2.073h-.745c0 1.023.322 1.895.979 2.586l.538-.516zm-.774-2.073c0-.705.195-1.308.58-1.824l-.597-.444a3.7 3.7 0 0 0-.728 2.268zm.58-1.824c.39-.524.935-.941 1.651-1.246l-.292-.685c-.82.349-1.477.842-1.956 1.487zm1.653-1.248c.713-.307 1.541-.468 2.491-.468v-.743c-1.033 0-1.965.173-2.786.53l.295.683zm2.491-.468c1.376 0 2.41.302 3.144.855l.45-.595c-.905-.684-2.118-1.003-3.594-1.003zm3.144.855c.749.56 1.245 1.31 1.489 2.26l.72-.184c-.284-1.108-.87-2.006-1.761-2.671z"/></g></g></g></g><defs><clipPath id="a"><path fill="#fff" d="M0 0h75v20H0z"/></clipPath><clipPath id="b"><path fill="#fff" d="M0 .04h63.808v21.743H0z"/></clipPath><clipPath id="c"><path fill="#fff" d="M0 .987h63.808v19.85H0z"/></clipPath></defs></svg>