<svg xmlns="http://www.w3.org/2000/svg" width="123" height="40" fill="none"><g fill="#2F3715" clip-path="url(#a)"><path d="M115.737 11.828 107.152 0H123zM96.764.002h5.682l11.227 15.467L98.613 40H82.91l-4.65-6.408L74.327 40H53.926l-4.65-6.409-3.934 6.407L11.624 40 0 23.982 14.724.002h12.874l-14.411 23.47 4.025 5.547h21.999l8.005-13.04-3.627-4.998h-4.715l-7.67 12.49 1.75 2.411H19.399l-1.38-1.901L32.741 0h16.436l4.252 5.859L57.025.003l27.59-.002-6.742 10.98-14.716.001-2.754 4.487-4.914 8.003 4.025 5.547h8.681l2.408-3.92h-9.618l-.9-1.465 5.844-9.516h24.288l-5.743 9.353 4.025 5.548h3.982l8.005-13.04-3.627-4.998H82.573L89.315 0h7.449z"/></g><defs><clipPath id="a"><path fill="#fff" d="M0 0h123v40H0z"/></clipPath></defs></svg>