<svg xmlns="http://www.w3.org/2000/svg" width="48" height="44" fill="none"><rect width="48" height="44" fill="#2F3715" rx="4"/><path stroke="#fff" stroke-linecap="round" stroke-linejoin="round" stroke-width="2" d="M17.332 30v-2.668M23.999 30v-4m6.666 4v-6.666M11.332 22c0-5.97 0-8.956 1.855-10.811s4.84-1.855 10.812-1.855c5.97 0 8.956 0 10.811 1.854 1.855 1.856 1.855 4.841 1.855 10.812s0 8.957-1.855 10.812-4.84 1.854-10.81 1.854-8.957 0-10.812-1.855-1.855-4.84-1.855-10.812"/><path stroke="#A1FF64" stroke-linecap="round" stroke-linejoin="round" stroke-width="2" d="M15.99 21.316c2.874.096 9.39-.338 13.096-6.22m-2.429-.71 2.5-.403c.305-.04.753.201.863.488l.661 2.185"/></svg>