<svg xmlns="http://www.w3.org/2000/svg" width="48" height="44" fill="none"><rect width="48" height="44" fill="#2F3715" rx="4"/><path stroke="#fff" stroke-linecap="round" stroke-linejoin="round" stroke-width="2" d="M25.999 8.668h-6.667a2 2 0 0 0 0 4h6.667a2 2 0 1 0 0-4"/><path stroke="#A1FF64" stroke-linecap="round" stroke-linejoin="round" stroke-width="2" d="M17.332 26.001h4.571m-4.571-5.333h10.667"/><path stroke="#fff" stroke-linecap="round" stroke-linejoin="round" stroke-width="2" d="M33.33 24.001v-5.356c0-3.771 0-5.657-1.172-6.829-.855-.855-2.09-1.086-4.162-1.148m-4 24.666h-4c-3.771 0-5.657 0-6.828-1.172s-1.172-3.057-1.172-6.828v-8.69c0-3.77 0-5.656 1.172-6.828.855-.855 2.09-1.086 4.161-1.148"/><path stroke="#A1FF64" stroke-linecap="round" stroke-linejoin="round" stroke-width="2" d="M26.664 32.665s1.333 0 2.667 2.667c0 0 2.902-6.667 6.666-8"/></svg>