<svg xmlns="http://www.w3.org/2000/svg" width="48" height="44" fill="none"><rect width="48" height="44" fill="#2F3715" rx="4"/><path stroke="#fff" stroke-linecap="round" stroke-linejoin="round" stroke-width="2" d="M11.334 16v8c0 5.029 0 7.543 1.562 9.105s4.076 1.562 9.105 1.562h3.333m11.333-11.333V16M13.16 13.086 11.333 16h25.333l-1.67-2.783c-1.138-1.897-1.707-2.846-2.624-3.365s-2.023-.519-4.235-.519h-8.2c-2.164 0-3.246 0-4.15.5s-1.48 1.418-2.629 3.253"/><path stroke="#fff" stroke-linecap="round" stroke-linejoin="round" stroke-width="1.5" d="M24 16V9.335"/><path stroke="#A1FF64" stroke-linecap="round" stroke-linejoin="round" stroke-width="2" d="M21.334 20h5.333m9.838 14.505L34 32m0 0a4 4 0 1 0-5.657-5.657A4 4 0 0 0 34 32"/></svg>